<svg width="25" height="19" fill="none" xmlns="http://www.w3.org/2000/svg"><path fill-rule="evenodd" clip-rule="evenodd" d="M21.583 1.473a3.039 3.039 0 012.115 2.16c.514 1.917.494 5.913.494 5.913s0 3.976-.494 5.893a3.04 3.04 0 01-2.115 2.16c-1.878.504-9.39.504-9.39.504s-7.493 0-9.391-.525a3.039 3.039 0 01-2.115-2.16C.192 13.523.192 9.527.192 9.527s0-3.976.495-5.893c.276-1.05 1.107-1.897 2.115-2.18C4.68.95 12.192.95 12.192.95s7.513 0 9.39.524zM9.8 5.853l6.247 3.673L9.8 13.199V5.853z" fill="#fff"/></svg>